# xmcd
#
# Track frame offsets:
#	150
#	9284
#	20734
#	35086
#	46104
#	57675
#	68341
#	76735
#	89405
#	102787
#	114208
#	126131
#	139331
#	150386
#	160017
#	172062
#	185349
#	198280
#	209795
#	223478
#	236318
#	244629
#	255203
#	265459
#
# Disc length: 3667 seconds
#
# Revision: 0
# Processed by: cddbd v1.5.2PL0 Copyright (c) Steve Scherf et al.
# Submitted via: audiograbber 1.83.01
#
DISCID=460e5118
DTITLE=Jean Ferrat - 1956-62 Derib
DYEAR=2017
DGENRE=Chanson française
TTITLE0=Ma mome
TTITLE1=Regarde-toi Paname
TTITLE2=Federico Garcia Lorca
TTITLE3=L'eloge du celibat
TTITLE4=Paris Gavroche
TTITLE5=Ta chanson
TTITLE6=Ma fille
TTITLE7=J'entends, j'entends
TTITLE8=Eh l'amour
TTITLE9=La cervelle
TTITLE10=Deux enfants au soleil
TTITLE11=Napoleon IV
TTITLE12=La fete aux copains
TTITLE13=Les noctambules
TTITLE14=Mes amours
TTITLE15=Les nomades
TTITLE16=Les mercenaires
TTITLE17=Ma vie, mais qu'est ce que c'est ¿
TTITLE18=Fredo la nature
TTITLE19=L'homme sandwich
TTITLE20=C'etait Noel
TTITLE21=Pres de la riviere enchantee
TTITLE22=Quand la valse est la
TTITLE23=Notre concerto
EXTD=croquis and 2 CD - Jean Ferrat  - Jean Ferrat et ses interprètes
EXTT0=
EXTT1=
EXTT2=
EXTT3=
EXTT4=
EXTT5=
EXTT6=
EXTT7=
EXTT8=
EXTT9=
EXTT10=
EXTT11=
EXTT12=
EXTT13=
EXTT14=
EXTT15=
EXTT16=
EXTT17=
EXTT18=
EXTT19=
EXTT20=
EXTT21=
EXTT22=
EXTT23=
PLAYORDER=
